<?xml version="1.0" encoding="UTF-8"?>
<svg width="229px" height="229px" viewBox="0 0 229 229" version="1.1" xmlns="http://www.w3.org/2000/svg" xmlns:xlink="http://www.w3.org/1999/xlink">
    <!-- Generator: Sketch 43 (38999) - http://www.bohemiancoding.com/sketch -->
    <title>1497537800_chrome</title>
    <desc>Created with Sketch.</desc>
    <defs></defs>
    <g id="Page-1" stroke="none" stroke-width="1" fill="none" fill-rule="evenodd">
        <g id="1497537800_chrome" fill-rule="nonzero">
            <path d="M114.5,173.095375 C102.871094,173.095375 92.287,169.960937 82.7405625,163.706375 C73.194125,157.444656 66.037875,149.393875 61.2718125,139.554031 L14.3125,57.25 C4.47265625,74.8472187 0,94.5269062 0,114.5 C0,143.125 9.3174375,168.100312 27.9523125,189.418781 C46.5871875,210.73725 69.7734375,223.482531 97.5039063,227.661781 L130.716062,170.189937 C127.374094,171.170344 121.799375,173.095375 114.5,173.095375 Z" id="Shape" fill="#4AAE48"></path>
            <path d="M78.4969062,68.2062188 C89.0738437,60.0123125 101.082031,57.25 114.5,57.25 L212.898437,57.25 C202.758031,39.9605 188.967937,25.3474375 171.528156,15.2070312 C154.081219,5.07378125 135.074219,0 114.5,0 C96.609375,0 79.9066875,3.79996875 64.40625,11.4070625 C48.8986562,19.007 34.550375,30.0777187 24.0378437,44.282875 L57.25,100.1875 C60.5275625,87.3706562 67.9056562,76.4144375 78.4969062,68.2062188 Z" id="Shape" fill="#EA3939"></path>
            <path d="M220.391031,71.5625 L153.859375,71.5625 C165.488281,83.1914062 173.095375,98.1050312 173.095375,114.5 C173.095375,126.730031 169.667531,137.908094 162.804688,148.0485 L115.845375,229 C147.153969,228.699437 173.839625,217.371094 195.9095,195.007812 C217.965062,172.644531 229,145.808594 229,114.5 C229,99.8940937 226.53825,84.529625 220.391031,71.5625 Z" id="Shape" fill="#FED14B"></path>
            <circle id="Oval" fill="#188FD1" cx="114.5" cy="114.5" r="42.9375"></circle>
        </g>
    </g>
</svg>