<?xml version="1.0" encoding="UTF-8"?>
<svg width="69px" height="68px" viewBox="0 0 69 68" version="1.1" xmlns="http://www.w3.org/2000/svg" xmlns:xlink="http://www.w3.org/1999/xlink">
    <!-- Generator: Sketch 43 (38999) - http://www.bohemiancoding.com/sketch -->
    <title>Dashboard_unselected</title>
    <desc>Created with Sketch.</desc>
    <defs></defs>
    <g id="Page-1" stroke="none" stroke-width="1" fill="none" fill-rule="evenodd">
        <g id="Dashboard_unselected" fill-rule="nonzero" fill="#FFFFFF">
            <g id="Group" transform="translate(12.000000, 10.000000)">
                <path d="M22.38,0.777 C10.301,0.777 0.475,10.716 0.475,22.934 C0.475,23.453 0.897,23.876 1.415,23.876 C1.935,23.876 2.357,23.453 2.357,22.934 C2.357,11.753 11.338,2.659 22.379,2.659 C33.42,2.659 42.401,11.721 42.401,22.862 C42.401,23.381 42.82,23.801 43.337,23.801 C43.856,23.801 44.278,23.38 44.278,22.862 C44.28,10.684 34.455,0.777 22.38,0.777 Z" id="Shape"></path>
                <path d="M32.264,12.961 C32.1,12.823 31.888,12.746 31.669,12.746 C31.569,12.746 31.469,12.762 31.373,12.795 C30.134,13.222 19.193,17.05 16.806,19.854 C15.547,21.345 14.936,23.239 15.09,25.186 C15.247,27.131 16.149,28.903 17.633,30.173 C18.955,31.296 20.637,31.915 22.371,31.915 C24.515,31.915 26.543,30.977 27.934,29.345 C30.392,26.452 32.481,14.331 32.57,13.816 C32.624,13.5 32.507,13.174 32.264,12.961 Z M30.427,15.363 C29.475,20.274 27.889,26.573 26.547,28.156 C25.532,29.347 23.995,30.03 22.331,30.03 C21.011,30.03 19.761,29.586 18.815,28.779 C17.701,27.83 17.024,26.503 16.908,25.039 C16.791,23.577 17.248,22.156 18.196,21.039 C19.554,19.444 25.28,16.955 30.186,15.157 L30.489,15.046 L30.427,15.363 Z" id="Shape"></path>
            </g>
            <path d="M34.481,67.884 C15.917,67.884 0.814,52.781 0.814,34.217 C0.814,24.746 4.837,15.66 11.849,9.289 C12.23,8.944 12.819,8.972 13.164,9.352 C13.51,9.733 13.481,10.322 13.102,10.667 C6.477,16.687 2.677,25.271 2.677,34.217 C2.677,51.754 16.945,66.022 34.482,66.022 C52.019,66.022 66.286,51.754 66.286,34.217 C66.286,16.68 52.019,2.412 34.482,2.412 C29.069,2.412 23.726,3.795 19.03,6.412 C18.58,6.661 18.012,6.499 17.763,6.052 C17.513,5.602 17.674,5.036 18.122,4.785 C23.094,2.014 28.752,0.549 34.481,0.549 C53.045,0.549 68.149,15.652 68.149,34.217 C68.149,52.781 53.046,67.884 34.481,67.884 Z" id="Shape"></path>
            <path d="M18.569,33.976 L13.495,33.976 C12.957,33.976 12.521,33.54 12.521,33.003 C12.521,32.466 12.957,32.031 13.495,32.031 L18.569,32.031 C19.107,32.031 19.543,32.466 19.543,33.003 C19.542,33.54 19.106,33.976 18.569,33.976 Z" id="Shape"></path>
            <path d="M55.197,33.976 L50.122,33.976 C49.585,33.976 49.149,33.54 49.149,33.003 C49.149,32.466 49.586,32.031 50.122,32.031 L55.197,32.031 C55.734,32.031 56.169,32.466 56.169,33.003 C56.169,33.54 55.734,33.976 55.197,33.976 Z" id="Shape"></path>
            <path d="M34.376,18.105 C33.84,18.105 33.404,17.67 33.404,17.132 L33.404,12.057 C33.404,11.52 33.84,11.084 34.376,11.084 C34.915,11.084 35.35,11.52 35.35,12.057 L35.35,17.132 C35.35,17.67 34.915,18.105 34.376,18.105 Z" id="Shape"></path>
        </g>
    </g>
</svg>