<?xml version="1.0" encoding="UTF-8"?>
<svg width="42px" height="41px" viewBox="0 0 42 41" version="1.1" xmlns="http://www.w3.org/2000/svg" xmlns:xlink="http://www.w3.org/1999/xlink">
    <!-- Generator: Sketch 43 (38999) - http://www.bohemiancoding.com/sketch -->
    <title>1497370070_mail-forward</title>
    <desc>Created with Sketch.</desc>
    <defs>
        <linearGradient x1="37.8698238%" y1="-2.46606525e-07%" x2="37.8698238%" y2="100.000013%" id="linearGradient-1">
            <stop stop-color="#000000" stop-opacity="0" offset="0%"></stop>
            <stop stop-color="#000000" offset="50%"></stop>
            <stop stop-color="#000000" stop-opacity="0" offset="100%"></stop>
        </linearGradient>
        <radialGradient cx="2.45304571%" cy="49.4104694%" fx="2.45304571%" fy="49.4104694%" r="33.9151165%" gradientTransform="translate(0.024530,0.494105),scale(0.889605,1.000000),translate(-0.024530,-0.494105)" id="radialGradient-2">
            <stop stop-color="#000000" offset="0%"></stop>
            <stop stop-color="#000000" stop-opacity="0" offset="100%"></stop>
        </radialGradient>
        <radialGradient cx="97.5470589%" cy="49.4104694%" fx="97.5470589%" fy="49.4104694%" r="33.9151106%" gradientTransform="translate(0.975471,0.494105),scale(0.889604,1.000000),translate(-0.975471,-0.494105)" id="radialGradient-3">
            <stop stop-color="#000000" offset="0%"></stop>
            <stop stop-color="#000000" stop-opacity="0" offset="100%"></stop>
        </radialGradient>
        <radialGradient cx="50.0000051%" cy="50.0000092%" fx="50.0000051%" fy="50.0000092%" r="26.2851495%" gradientTransform="translate(0.500000,0.500000),scale(0.357781,1.000000),translate(-0.500000,-0.500000)" id="radialGradient-4">
            <stop stop-color="#000000" offset="0%"></stop>
            <stop stop-color="#000000" stop-opacity="0" offset="100%"></stop>
        </radialGradient>
        <linearGradient x1="32.685944%" y1="-40.6887778%" x2="57.7699973%" y2="82.6003995%" id="linearGradient-5">
            <stop stop-color="#FFFFFF" offset="0%"></stop>
            <stop stop-color="#E2E2E2" offset="100%"></stop>
        </linearGradient>
        <linearGradient x1="51.7268755%" y1="2.63257659%" x2="56.735586%" y2="99.9999249%" id="linearGradient-6">
            <stop stop-color="#DFE0DF" offset="0%"></stop>
            <stop stop-color="#A6B0A6" offset="23.809524%"></stop>
            <stop stop-color="#B5BEB5" offset="100%"></stop>
        </linearGradient>
        <radialGradient cx="62.9638115%" cy="90.5447841%" fx="62.9638115%" fy="90.5447841%" r="52.0901803%" gradientTransform="translate(0.629638,0.905448),scale(0.483424,1.000000),translate(-0.629638,-0.905448)" id="radialGradient-7">
            <stop stop-color="#000000" stop-opacity="0.12871288" offset="0%"></stop>
            <stop stop-color="#000000" stop-opacity="0" offset="100%"></stop>
        </radialGradient>
        <linearGradient x1="33.4142628%" y1="1.91080056%" x2="41.0892764%" y2="-2.95964529%" id="linearGradient-8">
            <stop stop-color="#FFFFFF" offset="0%"></stop>
            <stop stop-color="#E2E2E2" offset="100%"></stop>
        </linearGradient>
        <linearGradient x1="32.9323409%" y1="-54.7664255%" x2="64.4867386%" y2="184.969537%" id="linearGradient-9">
            <stop stop-color="#FFFFFF" offset="0%"></stop>
            <stop stop-color="#E2E2E2" offset="100%"></stop>
        </linearGradient>
        <linearGradient x1="32.4553916%" y1="81.1375621%" x2="144.140882%" y2="47.0957397%" id="linearGradient-10">
            <stop stop-color="#FFFFFF" offset="0%"></stop>
            <stop stop-color="#EDEDED" offset="100%"></stop>
        </linearGradient>
        <linearGradient x1="39.8260631%" y1="35.2768489%" x2="62.5476806%" y2="7.16906555%" id="linearGradient-11">
            <stop stop-color="#FFFFFF" offset="0%"></stop>
            <stop stop-color="#FFFFFF" stop-opacity="0" offset="100%"></stop>
        </linearGradient>
        <linearGradient x1="61.1617771%" y1="74.6548981%" x2="86.8120381%" y2="93.7252452%" id="linearGradient-12">
            <stop stop-color="#666666" offset="0%"></stop>
            <stop stop-color="#FFC879" stop-opacity="0" offset="100%"></stop>
        </linearGradient>
        <linearGradient x1="27.7195329%" y1="6.48413578%" x2="58.0832098%" y2="129.695451%" id="linearGradient-13">
            <stop stop-color="#FFFFFF" offset="0%"></stop>
            <stop stop-color="#FFFFFF" stop-opacity="0" offset="100%"></stop>
        </linearGradient>
        <linearGradient x1="0%" y1="-17.3211918%" x2="74.3730457%" y2="64.5840727%" id="linearGradient-14">
            <stop stop-color="#FFFFFF" offset="0%"></stop>
            <stop stop-color="#FFFFFF" stop-opacity="0" offset="100%"></stop>
        </linearGradient>
    </defs>
    <g id="Page-1" stroke="none" stroke-width="1" fill="none" fill-rule="evenodd">
        <g id="1497370070_mail-forward" transform="translate(-4.000000, 0.000000)">
            <g id="g5022" transform="translate(0.510969, 22.234798)" fill-rule="nonzero" opacity="0.40206185">
                <rect id="rect4173" fill="url(#linearGradient-1)" x="7.99681238" y="0.0045040299" width="30.9844368" height="7.10715832"></rect>
                <path d="M38.9812501,0.00474873178 L38.9812501,7.11151496 C42.2857924,7.12489333 46.9700256,5.51924924 46.9700238,3.55767453 C46.9700238,1.5960995 43.2824033,0.00474902893 38.9812501,0.00474873178 Z" id="path5058" fill="url(#radialGradient-2)"></path>
                <path d="M7.99681238,0.00474873178 L7.99681238,7.11151496 C4.6922693,7.12489333 0.0080373414,5.51924924 0.0080373414,3.55767453 C0.0080373414,1.5960995 3.69565747,0.00474902893 7.99681238,0.00474873178 Z" id="path5018" fill="url(#radialGradient-3)"></path>
            </g>
            <path d="M44.8000315,31.5236283 C44.8000315,34.7263514 37.5432943,37.3226715 28.5916553,37.3226715 C19.6400162,37.3226715 12.383279,34.7263514 12.383279,31.5236283 C12.383279,29.4518297 15.4725781,27.5374089 20.4874671,26.5015096 C25.5023562,25.4656103 31.6809543,25.4656103 36.6958434,26.5015096 C41.7107324,27.5374089 44.8000315,29.4518297 44.8000315,31.5236283 L44.8000315,31.5236283 Z" id="path4202" fill="url(#radialGradient-4)" fill-rule="nonzero" opacity="0.3"></path>
            <g id="g4204" transform="translate(5.070452, 0.051352)">
                <path d="M0.345374906,0.4556109 L0.345374906,26.4847054 L37.4888762,26.4847054 L37.4260807,0.555339105 C37.4260677,0.54961491 37.4264565,0.528206519 37.4260807,0.522096704 C37.4253463,0.515604275 37.4271719,0.495724339 37.4260807,0.488853301 C37.424636,0.48160666 37.3964795,0.463231142 37.394683,0.4556109 L0.345374906,0.4556109 Z" id="path4206" stroke="#888A85" stroke-width="1.00000267" fill="url(#linearGradient-5)" stroke-linejoin="round"></path>
                <polygon id="path4208" fill="url(#linearGradient-6)" points="14.5591714 14.0813325 1.09988469 25.0709744 15.0744738 15.4512151 24.1352606 15.4512151 36.6130125 24.9486649 24.693509 14.0813325"></polygon>
                <path d="M1.45398515,1.72839853 C1.4472781,1.741766 1.45938837,1.74808715 1.45398515,1.76006339 C1.45161319,1.76570145 1.42472027,1.78644878 1.42268037,1.79173026 C1.42097495,1.79665217 1.42404881,1.8188328 1.42268037,1.82339513 C1.42165143,1.82759488 1.4233674,1.85122884 1.42268037,1.855062 L1.45398515,25.3826801 L36.4527314,25.3826801 L36.3901218,1.98172347 C36.3894336,1.9780045 36.3911466,1.95415018 36.3901218,1.9500576 C36.3754377,1.90186919 36.3482187,1.81759682 36.296207,1.72839853 L1.45398515,1.72839853 Z" id="path4210" stroke="#FFFFFF" stroke-width="1.00000249"></path>
                <path d="M17.4112136,18.0256777 C15.0077971,17.5786136 1.90937033,3.77719274 0.599426056,1.37422958 C0.584398957,1.34560961 0.558598573,1.29068137 0.547264348,1.26563313 L35.2235212,1.26563313 C34.9451325,3.77246414 27.6637272,17.7979369 25.6170461,18.0256777 C25.6088344,18.0261465 25.5956685,18.0256777 25.5876347,18.0256777 L17.5288611,18.0256777 C17.4950761,18.0256777 17.4509405,18.0330676 17.4112136,18.0256777 Z" id="path4212" fill="url(#radialGradient-7)"></path>
                <path d="M14.8445902,16.1112754 C12.4659583,15.7195091 1.95446429,3.62525867 1.12387165,1.51953 C1.11457079,1.49445071 1.09985154,1.44631638 1.09358305,1.42436713 L36.8037981,1.42436713 C35.9762888,3.62111602 25.4519403,15.9117048 23.2950999,16.1112754 C23.2865416,16.1116851 23.2730843,16.1112754 23.2648104,16.1112754 L14.9657442,16.1112754 C14.9309526,16.1112754 14.8839062,16.1177498 14.8445902,16.1112754 Z" id="path4214" stroke="#989898" stroke-width="0.85660632" fill="url(#linearGradient-8)" stroke-linejoin="round"></path>
                <path d="M14.6943072,15.5154032 C12.5783893,15.0240629 1.73062246,2.99251823 1.03629984,1.4687364 C1.03375175,1.46272875 1.03848814,1.44200546 1.03629984,1.43637041 C1.03082287,1.42058906 1.007066,1.38398726 1.00490212,1.37163942 C1.00493096,1.36830206 1.0044941,1.34221616 1.00490212,1.33927343 C1.00607685,1.33712999 1.03473769,1.34101322 1.03629984,1.33927343 L1.130493,1.24217645 L36.7669035,1.24217645 C36.7641756,1.26654159 36.7441123,1.30915705 36.7355058,1.33927343 C36.7279693,1.36291641 36.7148375,1.40961943 36.704108,1.43637041 C35.7776513,3.62081653 25.1417218,15.2249696 23.2972821,15.5154032 C23.2822836,15.5170498 23.2482032,15.5154032 23.2344867,15.5154032 L14.8198981,15.5154032 C14.7894679,15.5137325 14.7297198,15.5236264 14.6943072,15.5154032 Z" id="path4216" fill="url(#linearGradient-9)"></path>
                <path d="M14.9454889,15.0753583 C12.4859584,14.5250042 2.71678211,3.43942314 1.53866334,1.45406083 L36.2959377,1.45406083 C34.7987056,3.7909859 25.1970481,14.8874314 23.0774981,15.0753583 C23.0687138,15.0757609 23.0546084,15.0753583 23.0461004,15.0753583 L15.1024775,15.0753583 C15.0759588,15.0753583 15.0372888,15.078915 15.0082844,15.0753583 C14.9884049,15.0722072 14.9664385,15.0800458 14.9454889,15.0753583 Z" id="path4218" stroke="url(#linearGradient-10)" stroke-width="0.856606149"></path>
                <polygon id="path4220" fill="url(#linearGradient-11)" points="15.0302246 15.4719674 3.03227814 23.7561312 5.2622024 23.762248 15.3075885 16.8822559 24.1711977 15.4571286"></polygon>
            </g>
            <g id="g4242" transform="translate(8.000000, 12.000000)">
                <path d="M37.4863779,28.4655274 C22.3362837,22.832818 39.236505,9.52655119 14.3789941,8.19915932 L14.3789941,0.270355996 L0.299340259,12.6062554 L14.3789941,25.5434071 L14.3789941,17.3668388 C28.7721943,16.6212831 21.001766,29.2424146 37.4863779,28.4655274 Z" id="path2801" fill="url(#linearGradient-12)" fill-rule="nonzero" transform="translate(18.892859, 14.385176) rotate(-180.000000) translate(-18.892859, -14.385176) "></path>
                <path d="M36.144221,26.5306702 C26.8084692,21.1391178 39.3186531,9.2245729 16.2893681,8.3031848 L16.2893681,1.45376717 L4.40916782,11.8252207 L16.2893681,22.7720111 L16.2893681,15.7715961 C29.9019592,13.8520631 27.0144323,25.9357239 36.144221,26.5306702 Z" id="path2803" stroke="url(#linearGradient-13)" stroke-width="1.00000018" opacity="0.7" transform="translate(20.276694, 13.992219) rotate(-180.000000) translate(-20.276694, -13.992219) "></path>
                <path d="M23.84375,20.1875 L23.78125,27.5 L36.875,16.15625 L23.84375,4.09375 C23.843751,4.093751 23.78125,11.65625 23.78125,11.65625 C11.263051,14.276806 14.547112,0.410613 2.6875,0.9375 C13.872464,6.02322 0.730253,19.29154 23.84375,20.1875 Z M31.78125,11.625 C31.860491,11.620211 31.917074,11.627336 32,11.625 L36.8125,16.1875 L23.875,27.46875 L23.78125,20.15625 L19.59375,19.625 C28.938693,17.049622 26.789049,11.926677 31.78125,11.625 Z" id="path2490" fill="url(#linearGradient-14)" fill-rule="nonzero"></path>
            </g>
        </g>
    </g>
</svg>