<?xml version="1.0" encoding="UTF-8"?>
<svg width="76px" height="54px" viewBox="0 0 76 54" version="1.1" xmlns="http://www.w3.org/2000/svg" xmlns:xlink="http://www.w3.org/1999/xlink">
    <!-- Generator: Sketch 43 (38999) - http://www.bohemiancoding.com/sketch -->
    <title>Processed emails_unselected</title>
    <desc>Created with Sketch.</desc>
    <defs></defs>
    <g id="Page-1" stroke="none" stroke-width="1" fill="none" fill-rule="evenodd">
        <g id="Processed-emails_unselected" fill-rule="nonzero" fill="#FFFFFF">
            <path d="M69.611,0.761 L6.704,0.761 C3.54,0.761 0.966,3.335 0.966,6.497 L0.966,47.723 C0.966,50.887 3.54,53.462 6.704,53.462 L69.611,53.462 C72.775,53.462 75.349,50.887 75.349,47.723 L75.349,6.497 C75.35,3.335 72.775,0.761 69.611,0.761 Z M73.549,47.723 C73.549,49.894 71.783,51.66 69.611,51.66 L6.704,51.66 C4.535,51.66 2.768,49.894 2.768,47.723 L2.768,6.497 C2.768,4.327 4.534,2.561 6.704,2.561 L69.611,2.561 C71.783,2.561 73.549,4.327 73.549,6.497 L73.549,47.723 Z" id="Shape"></path>
            <path d="M67.453,7.606 L41.211,29.995 C40.409,30.694 39.323,31.082 38.16,31.082 C36.994,31.082 35.91,30.694 35.101,29.995 L9.088,7.798 C8.721,7.491 8.123,7.524 7.812,7.883 C7.487,8.263 7.525,8.837 7.901,9.157 L28.354,26.6 L12.288,41.63 C11.933,41.975 11.916,42.546 12.256,42.905 C12.572,43.243 13.172,43.273 13.529,42.938 L29.73,27.775 L33.926,31.354 C35.052,32.338 36.555,32.879 38.159,32.879 C39.759,32.879 41.266,32.333 42.399,31.344 L46.572,27.783 L62.768,42.937 C63.131,43.275 63.717,43.244 64.04,42.904 C64.383,42.545 64.365,41.973 64.004,41.627 L47.951,26.607 L68.642,8.952 C69.018,8.628 69.054,8.071 68.726,7.687 C68.411,7.333 67.816,7.289 67.453,7.606 Z" id="Shape"></path>
        </g>
    </g>
</svg>