<?xml version="1.0" encoding="UTF-8"?>
<svg width="25px" height="27px" viewBox="0 0 25 27" version="1.1" xmlns="http://www.w3.org/2000/svg" xmlns:xlink="http://www.w3.org/1999/xlink">
    <!-- Generator: Sketch 43 (38999) - http://www.bohemiancoding.com/sketch -->
    <title>1497370269_icon-2-mail-envelope-open</title>
    <desc>Created with Sketch.</desc>
    <defs></defs>
    <g id="Page-1" stroke="none" stroke-width="1" fill="none" fill-rule="evenodd">
        <g id="1497370269_icon-2-mail-envelope-open" fill-rule="nonzero" fill="#666666">
            <path d="M7.2931426,16 L4,13.2000122 L4,5.00207596 C4,4.44373571 4.44769743,4 4.9999602,4 L20.0000398,4 C20.5452911,4 21,4.44864469 21,5.00207596 L21,13.2000122 L17.6668971,16 L7.2931426,16 L7.2931426,16 Z M8.4692701,17 L10.2521973,18.5159302 L14.671936,18.5159302 L16.476498,17 L8.4692701,17 L8.4692701,17 Z M18.1851633,17.1270029 L16,19 L16,19 L21.9230769,24.0769231 L21.9230769,24.0769231 L21.1153846,24.8846154 L15.1195568,19.7453344 L9.8961462,19.7681253 L9.875,19.75 L3.88461538,24.8846154 L3.07692308,24.0769231 L3.07692308,24.0769231 L9,19 L6.8148367,17.1270029 L3,13.9000244 L3,8.36 L0,11 L0,12 L0,25.0059397 C0,26.1072288 0.88976324,27 2.00359486,27 L22.9964051,27 C24.10296,27 25,26.1054862 25,25.0059397 L25,11 L22,8.36 L22,13.9000244 L18.1851633,17.1270029 L18.1851633,17.1270029 L18.1851633,17.1270029 Z M15.9090909,3 L12.5,0 L9.0909091,3 L15.9090909,3 L15.9090909,3 L15.9090909,3 Z M6,7 L6,8 L19,8 L19,7 L6,7 L6,7 Z M6,10 L6,11 L19,11 L19,10 L6,10 L6,10 Z M6,13 L6,14 L19,14 L19,13 L6,13 L6,13 Z" id="mail-envelope-open"></path>
        </g>
    </g>
</svg>