<?xml version="1.0" encoding="UTF-8"?>
<svg width="36px" height="37px" viewBox="0 0 36 37" version="1.1" xmlns="http://www.w3.org/2000/svg" xmlns:xlink="http://www.w3.org/1999/xlink">
    <!-- Generator: Sketch 43 (38999) - http://www.bohemiancoding.com/sketch -->
    <title>resecLogo</title>
    <desc>Created with Sketch.</desc>
    <defs></defs>
    <g id="Page-1" stroke="none" stroke-width="1" fill="none" fill-rule="evenodd">
        <g id="resecLogo" fill-rule="nonzero" fill="#FFFFFF">
            <path d="M21.801931,17.0697843 C21.801931,15.0300539 20.1628966,13.3752809 18.1423448,13.3752809 C16.1230345,13.3752809 14.4827586,15.0300539 14.4827586,17.0697843 C14.4827586,18.5849528 15.3877241,19.8869528 16.6783448,20.4558202 L15.6115862,24.3802112 C15.4233103,24.9745753 15.8635862,25.4393663 16.4842759,25.4393663 L19.802069,25.4393663 C20.424,25.4393663 20.8638621,24.9745753 20.6735172,24.3802112 L19.610069,20.4558202 C20.8982069,19.8873708 21.801931,18.5849528 21.801931,17.0697843 Z" id="Shape"></path>
            <path d="M35.9837441,5.99423188 C36.0077441,5.17541391 35.9849855,3.202142 35.9613993,1.74716222 C35.9444338,0.777036378 35.1652614,0.000434131237 34.206089,0.000434131237 C30.925951,1.61537091e-05 23.8877441,-0.0016557564 21.3474683,0.00628581663 C18.1116062,0.0167352548 14.8517441,0.0175712099 11.6812614,0.680901547 C8.51491654,1.3475757 5.40650275,2.72104986 3.18029585,5.09599818 C0.747192403,7.68996672 -0.460255873,11.460542 0.161675161,14.9774049 C0.31353723,15.8384386 0.57753723,16.6777375 0.939192403,17.4756566 C2.05477861,19.9333645 4.08443378,21.9664072 6.58664068,22.9127083 C6.81050275,22.9975577 7.09105447,23.066106 7.26443378,22.8959892 C7.48995102,22.6849105 7.33064068,22.304969 7.17505447,22.0387173 C5.88070964,19.8263622 5.5533993,17.0572611 6.28705447,14.5991353 C7.02277861,12.1376656 8.81201999,10.0189375 11.1002959,8.90210155 C13.5727096,7.68578694 16.3422269,7.65402065 19.0910545,7.64524312 L34.3778131,7.57920267 C35.2471924,7.57669481 35.9589165,6.87491054 35.9837441,5.99423188 Z" id="Shape"></path>
            <path d="M35.9837445,19.78749 C36.0077445,18.968672 35.9849859,16.9954001 35.9613997,15.5404203 C35.9444342,14.5702945 35.1652618,13.7936923 34.2060894,13.7936923 C30.9259514,13.7932743 23.8877445,13.7916024 21.3474687,13.7995439 C18.1116066,13.8099934 14.8517445,13.8108293 11.6812618,14.4741597 C8.51491698,15.1408338 5.40650319,16.514308 3.18029629,18.8892563 C0.747192847,21.4832248 -0.460255429,25.2538001 0.161675605,28.770663 C0.313537674,29.6316968 0.577537674,30.4709956 0.939192847,31.2689147 C2.05477905,33.7266226 4.08443422,35.7596653 6.58664112,36.7059664 C6.81050319,36.7908159 7.09105491,36.8593642 7.26443422,36.6892473 C7.48995146,36.4781687 7.33064112,36.0982271 7.17505491,35.8319754 C5.88071008,33.6196203 5.55339974,30.8505192 6.28705491,28.3923934 C7.02277905,25.9309237 8.81202043,23.8121956 11.1002963,22.6953597 C11.7389778,22.3811575 12.3974854,22.1460012 13.0703407,21.9698678 C15.00219,21.4641672 17.0523129,21.4450113 19.0910549,21.4385012 L34.3778135,21.3724608 C35.2471928,21.3699529 35.9589169,20.6681687 35.9837445,19.78749 Z" id="Shape" transform="translate(17.996980, 25.293719) rotate(180.000000) translate(-17.996980, -25.293719) "></path>
        </g>
    </g>
</svg>