<?xml version="1.0" encoding="UTF-8"?>
<svg width="63px" height="74px" viewBox="0 0 63 74" version="1.1" xmlns="http://www.w3.org/2000/svg" xmlns:xlink="http://www.w3.org/1999/xlink">
    <!-- Generator: Sketch 43 (38999) - http://www.bohemiancoding.com/sketch -->
    <title>Security settings_selected</title>
    <desc>Created with Sketch.</desc>
    <defs></defs>
    <g id="Page-1" stroke="none" stroke-width="1" fill="none" fill-rule="evenodd">
        <g id="Security-settings_selected" fill-rule="nonzero" fill="#FFFFFF">
            <path d="M62.198,27.159 L62.198,1.585 C62.198,1.064 61.772,0.642 61.247,0.642 L0.952,0.642 C0.437,0.642 0.003,1.075 0.003,1.585 L0.003,27.159 C0.003,61.518 29.513,73.454 30.769,73.944 C30.981,74.018 31.262,74.014 31.432,73.944 C32.693,73.452 62.198,61.476 62.198,27.159 Z M31.164,71.995 L31.101,72.021 L31.036,71.995 C28.055,70.736 1.906,58.78 1.906,27.159 L1.906,2.546 L60.303,2.546 L60.303,27.159 C60.303,58.791 34.148,70.736 31.164,71.995 Z" id="Shape"></path>
            <path d="M51.909,21.222 C51.909,20.156 51.496,19.156 50.742,18.406 C49.992,17.654 48.991,17.241 47.926,17.241 C46.861,17.241 45.86,17.654 45.11,18.406 L27.382,36.132 L27.243,35.994 L21.478,30.23 C20.728,29.479 19.728,29.064 18.664,29.064 C17.597,29.064 16.598,29.479 15.849,30.229 C15.096,30.981 14.683,31.981 14.683,33.047 C14.683,34.112 15.096,35.111 15.849,35.863 L24.567,44.582 C25.317,45.335 26.319,45.75 27.382,45.75 C28.448,45.75 29.448,45.335 30.198,44.584 L50.742,24.036 C51.496,23.286 51.909,22.285 51.909,21.222 Z M49.334,22.626 L28.789,43.171 C28.412,43.548 27.914,43.754 27.382,43.754 C26.851,43.754 26.35,43.545 25.978,43.17 L17.256,34.453 C16.881,34.077 16.674,33.577 16.674,33.047 C16.674,32.514 16.881,32.015 17.256,31.64 C17.632,31.266 18.13,31.058 18.663,31.058 C19.192,31.058 19.693,31.266 20.068,31.64 L26.675,38.247 C27.05,38.625 27.713,38.625 28.089,38.247 L46.52,19.814 C46.896,19.44 47.395,19.232 47.927,19.232 C48.457,19.232 48.957,19.44 49.333,19.814 C50.107,20.591 50.107,21.852 49.334,22.626 Z" id="Shape"></path>
            <path d="M48.319,52.64 C47.802,52.304 47.112,52.449 46.774,52.963 C45.857,54.369 44.779,55.714 43.574,56.963 C42.582,57.99 41.506,58.946 40.379,59.806 C39.889,60.179 39.795,60.877 40.169,61.368 C40.387,61.654 40.718,61.806 41.054,61.806 C41.289,61.806 41.527,61.731 41.729,61.577 C42.947,60.65 44.108,59.618 45.176,58.512 C46.481,57.161 47.647,55.705 48.642,54.182 C48.978,53.667 48.832,52.977 48.319,52.64" id="Shape"></path>
            <path d="M5.647,16.691 C5.111,16.691 4.676,16.255 4.676,15.717 L4.676,5.212 L15.282,5.212 C15.818,5.212 16.253,5.648 16.253,6.185 C16.253,6.722 15.818,7.158 15.282,7.158 L6.619,7.158 L6.619,15.718 C6.62,16.256 6.187,16.691 5.647,16.691 Z" id="Shape"></path>
        </g>
    </g>
</svg>