<?xml version="1.0" encoding="UTF-8"?>
<svg width="27px" height="20px" viewBox="0 0 27 20" version="1.1" xmlns="http://www.w3.org/2000/svg" xmlns:xlink="http://www.w3.org/1999/xlink">
    <!-- Generator: Sketch 43 (38999) - http://www.bohemiancoding.com/sketch -->
    <title>1497375837_icon-131-cloud-error</title>
    <desc>Created with Sketch.</desc>
    <defs></defs>
    <g id="Page-1" stroke="none" stroke-width="1" fill="none" fill-rule="evenodd">
        <g id="1497375837_icon-131-cloud-error" fill-rule="nonzero" fill="#FB154B">
            <path d="M19.4615385,17 L22.0005601,17 C24.7616745,17 27,14.7558048 27,12 C27,9.9035809 25.7132907,8.1085075 23.8828633,7.3655101 L23.8828633,7.3655101 C23.3600217,4.87224935 21.1486546,3 18.5,3 C17.6371017,3 16.8206159,3.19871575 16.0938083,3.55288165 C14.8911816,1.43144875 12.6127573,0 10,0 C6.13400656,0 3,3.13400656 3,7 C3,7.1381509 3.00400207,7.275367 3.01189661,7.4115388 L3.01189661,7.4115388 C1.23965876,8.1816085 0,9.9491311 0,12 C0,14.7614237 2.23249418,17 4.99943992,17 L7.5384615,17 L13.5,7 L19.4615385,17 L19.4615385,17 L19.4615385,17 Z M13.5,9 L20,20 L7,20 L13.5,9 L13.5,9 Z M13,13 L13,16 L14,16 L14,13 L13,13 L13,13 Z M13,17 L13,18 L14,18 L14,17 L13,17 L13,17 Z" id="cloud-error"></path>
        </g>
    </g>
</svg>