<?xml version="1.0" encoding="UTF-8"?>
<svg width="68px" height="68px" viewBox="0 0 68 68" version="1.1" xmlns="http://www.w3.org/2000/svg" xmlns:xlink="http://www.w3.org/1999/xlink">
    <!-- Generator: Sketch 43 (38999) - http://www.bohemiancoding.com/sketch -->
    <title>Settings_unselected</title>
    <desc>Created with Sketch.</desc>
    <defs></defs>
    <g id="Page-1" stroke="none" stroke-width="1" fill="none" fill-rule="evenodd">
        <g id="Settings_unselected" fill-rule="nonzero" fill="#FFFFFF">
            <path d="M67.871,36.613 L67.871,30.517 C67.871,29.03 66.765,27.744 65.299,27.524 C64.024,27.333 62.707,27.149 61.399,26.978 C61.027,26.932 60.718,26.671 60.612,26.314 C60.021,24.155 59.16,22.073 58.05,20.121 C57.862,19.793 57.895,19.383 58.134,19.08 C58.937,18.039 59.734,16.982 60.502,15.941 C61.385,14.749 61.257,13.057 60.205,12.006 L55.894,7.695 C54.873,6.671 53.123,6.537 51.959,7.397 C50.922,8.165 49.864,8.965 48.811,9.772 C48.53,9.996 48.093,10.033 47.777,9.849 C45.831,8.744 43.752,7.882 41.596,7.288 C41.237,7.191 40.965,6.872 40.921,6.494 C40.749,5.19 40.566,3.878 40.379,2.599 C40.156,1.135 38.868,0.029 37.38,0.029 L31.29,0.029 C29.8,0.029 28.513,1.134 28.297,2.599 C28.104,3.878 27.918,5.189 27.75,6.501 C27.701,6.881 27.437,7.191 27.075,7.289 C24.914,7.884 22.836,8.746 20.892,9.851 C20.572,10.033 20.148,9.998 19.854,9.771 C18.807,8.964 17.75,8.166 16.71,7.397 C15.558,6.547 13.79,6.684 12.776,7.696 L8.467,12.007 C7.416,13.057 7.288,14.748 8.166,15.942 C8.936,16.984 9.734,18.042 10.539,19.085 C10.772,19.391 10.803,19.794 10.623,20.118 C9.514,22.069 8.651,24.149 8.057,26.306 C7.957,26.667 7.647,26.929 7.27,26.978 C5.962,27.15 4.649,27.333 3.37,27.524 C1.906,27.743 0.798,29.03 0.798,30.517 L0.798,36.613 C0.798,38.099 1.906,39.386 3.37,39.605 C4.652,39.797 5.963,39.98 7.272,40.152 C7.647,40.201 7.958,40.464 8.056,40.824 C8.652,42.98 9.514,45.06 10.621,47.01 C10.803,47.334 10.772,47.739 10.543,48.041 C9.734,49.092 8.936,50.148 8.166,51.189 C7.288,52.381 7.416,54.072 8.467,55.123 L12.776,59.434 C13.798,60.457 15.546,60.59 16.712,59.733 C17.749,58.964 18.807,58.167 19.854,57.358 C20.024,57.23 20.231,57.159 20.436,57.159 C20.597,57.159 20.756,57.204 20.895,57.282 C22.836,58.387 24.918,59.249 27.076,59.843 C27.437,59.944 27.703,60.253 27.75,60.632 C27.918,61.943 28.104,63.253 28.297,64.53 C28.513,65.998 29.8,67.101 31.29,67.101 L37.38,67.101 C38.868,67.101 40.156,65.995 40.379,64.529 C40.566,63.253 40.749,61.939 40.922,60.629 C40.965,60.257 41.23,59.944 41.593,59.843 C43.751,59.249 45.83,58.388 47.778,57.281 C48.088,57.101 48.517,57.132 48.814,57.361 C49.865,58.166 50.922,58.965 51.96,59.734 C53.123,60.591 54.873,60.459 55.895,59.435 L60.206,55.124 C61.258,54.072 61.388,52.382 60.503,51.192 C59.734,50.149 58.934,49.089 58.131,48.044 C57.896,47.747 57.862,47.339 58.055,47.007 C59.16,45.058 60.023,42.978 60.613,40.826 C60.72,40.462 61.029,40.2 61.403,40.153 C62.71,39.98 64.026,39.798 65.301,39.606 C66.765,39.387 67.871,38.1 67.871,36.613 Z M65.783,36.613 C65.783,37.073 65.444,37.472 64.996,37.542 C63.725,37.73 62.429,37.913 61.131,38.082 C59.916,38.24 58.923,39.099 58.597,40.27 C58.049,42.267 57.255,44.187 56.237,45.978 C55.636,47.037 55.728,48.346 56.475,49.316 C57.275,50.353 58.065,51.402 58.824,52.431 C59.095,52.794 59.057,53.318 58.734,53.646 L54.418,57.958 C54.113,58.272 53.56,58.321 53.2,58.052 C52.175,57.292 51.125,56.503 50.087,55.704 C49.136,54.972 47.791,54.871 46.751,55.464 C44.951,56.485 43.031,57.28 41.042,57.829 C39.872,58.152 39.013,59.143 38.854,60.358 C38.682,61.657 38.502,62.956 38.312,64.22 C38.238,64.684 37.845,65.013 37.38,65.013 L31.29,65.013 C30.828,65.013 30.426,64.672 30.357,64.223 C30.169,62.954 29.988,61.657 29.817,60.36 C29.661,59.143 28.801,58.152 27.631,57.829 C25.643,57.282 23.722,56.487 21.921,55.464 C20.883,54.875 19.538,54.97 18.587,55.704 C17.547,56.503 16.498,57.292 15.468,58.054 C15.12,58.318 14.576,58.283 14.256,57.959 L9.942,53.649 C9.613,53.309 9.575,52.799 9.843,52.432 C10.607,51.401 11.4,50.354 12.193,49.315 C12.942,48.346 13.035,47.036 12.436,45.977 C11.413,44.177 10.617,42.257 10.067,40.269 C9.748,39.099 8.756,38.24 7.542,38.081 C6.246,37.912 4.948,37.729 3.678,37.543 C3.225,37.47 2.887,37.069 2.887,36.612 L2.887,30.518 C2.887,30.057 3.226,29.657 3.677,29.588 C4.948,29.398 6.246,29.215 7.542,29.047 C8.757,28.89 9.748,28.031 10.067,26.86 C10.617,24.87 11.413,22.95 12.436,21.151 C13.035,20.093 12.942,18.783 12.194,17.815 C11.4,16.778 10.607,15.731 9.845,14.699 C9.575,14.335 9.616,13.814 9.937,13.486 L14.253,9.172 C14.564,8.86 15.114,8.81 15.472,9.078 C16.498,9.838 17.543,10.625 18.585,11.425 C19.526,12.154 20.891,12.251 21.921,11.667 C23.723,10.644 25.645,9.847 27.631,9.3 C28.801,8.977 29.66,7.985 29.817,6.772 C29.988,5.475 30.17,4.174 30.357,2.911 C30.425,2.456 30.825,2.116 31.286,2.116 L37.38,2.116 C37.838,2.116 38.239,2.454 38.312,2.904 C38.502,4.175 38.682,5.474 38.854,6.772 C39.012,7.986 39.872,8.979 41.042,9.301 C43.029,9.848 44.947,10.645 46.751,11.668 C47.79,12.255 49.131,12.16 50.088,11.428 C51.125,10.629 52.175,9.84 53.204,9.077 C53.549,8.816 54.105,8.853 54.423,9.178 L58.731,13.482 C59.06,13.812 59.099,14.337 58.823,14.705 C58.066,15.732 57.276,16.778 56.476,17.818 C55.729,18.786 55.637,20.096 56.238,21.154 C57.257,22.945 58.05,24.864 58.602,26.862 C58.924,28.032 59.917,28.891 61.132,29.05 C62.43,29.218 63.726,29.401 64.994,29.59 C65.445,29.661 65.784,30.06 65.784,30.521 L65.784,36.613 L65.783,36.613 Z" id="Shape"></path>
            <path d="M34.331,47.246 C26.789,47.246 20.652,41.107 20.652,33.564 C20.652,31.106 21.315,28.692 22.568,26.585 C22.862,26.093 23.497,25.932 23.987,26.225 C24.477,26.517 24.638,27.151 24.346,27.642 C23.284,29.431 22.721,31.477 22.721,33.564 C22.721,39.966 27.93,45.175 34.33,45.175 C40.733,45.175 45.944,39.966 45.944,33.564 C45.944,27.162 40.733,21.953 34.33,21.953 C32.227,21.953 30.165,22.522 28.367,23.598 C27.881,23.889 27.243,23.733 26.95,23.243 C26.656,22.753 26.815,22.117 27.304,21.824 C29.422,20.555 31.853,19.885 34.329,19.885 C41.873,19.885 48.014,26.021 48.014,33.565 C48.016,41.107 41.875,47.246 34.331,47.246 Z" id="Shape"></path>
        </g>
    </g>
</svg>