<?xml version="1.0" encoding="UTF-8"?>
<svg width="30px" height="30px" viewBox="0 0 30 30" version="1.1" xmlns="http://www.w3.org/2000/svg" xmlns:xlink="http://www.w3.org/1999/xlink">
    <!-- Generator: Sketch 43 (38999) - http://www.bohemiancoding.com/sketch -->
    <title>1497371790_Done_Circle_Symbol_Downloaded</title>
    <desc>Created with Sketch.</desc>
    <defs></defs>
    <g id="Page-1" stroke="none" stroke-width="1" fill="none" fill-rule="evenodd">
        <g id="1497371790_Done_Circle_Symbol_Downloaded" fill-rule="nonzero" fill="#8E3089">
            <path d="M15,2.22044605e-16 C6.71572875,-2.33146835e-15 9.99200722e-16,6.71572875 0,15 C-9.99200722e-16,23.2842712 6.71572875,30 15,30 C23.2842712,30 30,23.2842712 30,15 C30,6.71572875 23.2842712,2.22044605e-15 15,0 L15,2.22044605e-16 Z M15,26 C8.92486775,26 4,21.0751322 4,15 C4,8.92486775 8.92486775,4 15,4 C21.0751322,4 26,8.92486775 26,15 C26,17.9173814 24.8410748,20.7152744 22.7781746,22.7781746 C20.7152744,24.8410748 17.9173814,26 15,26 Z" id="Shape"></path>
            <path d="M18.59,10.59 L14,15.17 L12.41,13.58 C11.6285171,12.7985171 10.3614829,12.7985171 9.58000002,13.58 C8.79851711,14.3614829 8.7985171,15.6285171 9.58,16.41 L12.58,19.41 C12.9551365,19.7855541 13.4641815,19.9965733 13.995,19.9965733 C14.5258185,19.9965733 15.0348635,19.7855541 15.41,19.41 L21.41,13.41 C22.1914829,12.6285171 22.1914829,11.3614829 21.41,10.58 C20.6285171,9.79851708 19.3614829,9.79851708 18.58,10.58 L18.59,10.59 Z" id="Shape"></path>
        </g>
    </g>
</svg>